# xmcd
#
# Track frame offsets:
#	150
#	14540
#	28153
#	45744
#	64267
#	80689
#	94184
#	111545
#	128910
#	150436
#	165691
#	185542
#
# Disc length: 2738 seconds
#
# Revision: 2
# Processed by: cddbd v1.5.2PL0 Copyright (c) Steve Scherf et al.
# Submitted via: audiograbber 1.83.01
#
DISCID=a30ab00c
DTITLE=Teresa - Brave new girls
DYEAR=2001
DGENRE=Country
TTITLE0=Brave new girls (Cady's song)
TTITLE1=Fantastic fire of love
TTITLE2=(She learned it on) The playground
TTITLE3=The little girl in me
TTITLE4=Niagara Falls
TTITLE5=My daddy is a cabinet maker (Labor of love)
TTITLE6=That horse
TTITLE7=Terms of my surrender
TTITLE8=Way down under
TTITLE9=The longer it takes
TTITLE10=Out among the stars
TTITLE11=Love lives
EXTD=
EXTT0=
EXTT1=
EXTT2=
EXTT3=
EXTT4=
EXTT5=
EXTT6=
EXTT7=
EXTT8=
EXTT9=
EXTT10=
EXTT11=
PLAYORDER=
